<svg version="1.1" id="Layer_1" xmlns="http://www.w3.org/2000/svg" xmlns:xlink="http://www.w3.org/1999/xlink" x="0px" y="0px"
	 width="100%" viewBox="0 0 131 134" enable-background="new 0 0 131 134" xml:space="preserve">
<path fill="#FC3C65" opacity="1.000000" stroke="none" 
	d="
M85.000000,135.000000 
	C56.692947,135.000000 28.885893,135.000000 1.039420,135.000000 
	C1.039420,90.401817 1.039420,45.803589 1.039420,1.102681 
	C44.556767,1.102681 88.113853,1.102681 131.835480,1.102681 
	C131.835480,45.666168 131.835480,90.333038 131.835480,135.000000 
	C116.470703,135.000000 100.985352,135.000000 85.000000,135.000000 
M47.549339,116.015587 
	C58.552029,120.557617 69.808052,121.331421 81.218048,117.912903 
	C106.513863,110.334084 121.645317,84.366821 115.758263,58.839821 
	C109.791451,32.966976 84.767616,16.356850 58.500973,20.834038 
	C36.629002,24.562149 20.395519,41.715435 17.274963,64.395950 
	C14.415158,85.181297 26.280382,105.775162 47.549339,116.015587 
z"/>
<path fill="#030101" opacity="1.000000" stroke="none" 
	d="
M47.197517,115.867966 
	C26.280382,105.775162 14.415158,85.181297 17.274963,64.395950 
	C20.395519,41.715435 36.629002,24.562149 58.500973,20.834038 
	C84.767616,16.356850 109.791451,32.966976 115.758263,58.839821 
	C121.645317,84.366821 106.513863,110.334084 81.218048,117.912903 
	C69.808052,121.331421 58.552029,120.557617 47.197517,115.867966 
M58.140728,98.669151 
	C75.387833,104.304161 95.608040,92.390793 96.909363,71.693787 
	C97.885040,56.176174 86.926254,42.891346 71.379967,40.305157 
	C56.882072,37.893372 41.935589,47.631004 38.082104,61.998711 
	C33.930557,77.477753 41.846481,92.368034 58.140728,98.669151 
z"/>
<path fill="#FB3B64" opacity="1.000000" stroke="none" 
	d="
M57.772377,98.506714 
	C41.846481,92.368034 33.930557,77.477753 38.082104,61.998711 
	C41.935589,47.631004 56.882072,37.893372 71.379967,40.305157 
	C86.926254,42.891346 97.885040,56.176174 96.909363,71.693787 
	C95.608040,92.390793 75.387833,104.304161 57.772377,98.506714 
z"/>
</svg>