<svg version="1.1" id="Layer_1" xmlns="http://www.w3.org/2000/svg" xmlns:xlink="http://www.w3.org/1999/xlink" x="0px" y="0px"
	 width="100%" viewBox="0 0 139 139" enable-background="new 0 0 139 139" xml:space="preserve">
<path fill="#98E38A" opacity="1.000000" stroke="none" 
	d="
M87.000000,140.000000 
	C58.025646,140.000000 29.551292,140.000000 1.038469,140.000000 
	C1.038469,93.734032 1.038469,47.468025 1.038469,1.101008 
	C47.224102,1.101008 93.448502,1.101008 139.836456,1.101008 
	C139.836456,47.332863 139.836456,93.666382 139.836456,140.000000 
	C122.468414,140.000000 104.984207,140.000000 87.000000,140.000000 
M46.849163,107.349396 
	C54.456905,99.711494 62.064644,92.073586 69.504532,84.604202 
	C70.377571,84.961533 70.752747,85.006859 70.963783,85.217010 
	C81.114822,95.325653 91.228508,105.471909 101.399498,115.560387 
	C106.868149,120.984673 112.755768,121.434578 117.145721,116.899872 
	C121.389503,112.516159 120.917770,106.798065 115.677338,101.499130 
	C106.423622,92.142105 97.080811,82.873238 87.789909,73.552895 
	C86.658798,72.418190 85.617683,71.193764 84.045441,69.476303 
	C87.396400,66.370636 90.519073,63.626152 93.472252,60.710014 
	C100.821236,53.453197 108.121902,46.146786 115.386368,38.805275 
	C120.901794,33.231346 121.476578,27.500151 117.093544,23.041534 
	C112.674812,18.546595 106.865234,19.061459 101.344933,24.485537 
	C98.017975,27.754501 94.738548,31.071934 91.445885,34.375683 
	C84.419861,41.425365 77.399132,48.480309 70.192688,55.717415 
	C68.621773,54.247696 67.401558,53.167355 66.249550,52.018600 
	C56.930763,42.726109 47.662506,33.382584 38.300056,24.134386 
	C33.094318,18.992178 27.216684,18.653008 22.905216,23.037569 
	C18.615866,27.399633 19.073853,33.162834 24.271164,38.425831 
	C31.294109,45.537537 38.369457,52.598080 45.473454,59.628914 
	C48.868294,62.988792 52.380928,66.229652 55.936485,69.616127 
	C54.649555,71.029182 54.017792,71.780731 53.326672,72.473015 
	C43.440468,82.375969 33.492088,92.217613 23.677616,102.191071 
	C19.014736,106.929482 18.804785,112.666672 22.807817,116.859924 
	C26.948469,121.197334 32.858013,121.031075 37.854053,116.315598 
	C40.760330,113.572533 43.522377,110.676659 46.849163,107.349396 
z"/>
<path fill="#040503" opacity="1.000000" stroke="none" 
	d="
M46.599239,107.599464 
	C43.522377,110.676659 40.760330,113.572533 37.854053,116.315598 
	C32.858013,121.031075 26.948469,121.197334 22.807817,116.859924 
	C18.804785,112.666672 19.014736,106.929482 23.677616,102.191071 
	C33.492088,92.217613 43.440468,82.375969 53.326672,72.473015 
	C54.017792,71.780731 54.649555,71.029182 55.936485,69.616127 
	C52.380928,66.229652 48.868294,62.988792 45.473454,59.628914 
	C38.369457,52.598080 31.294109,45.537537 24.271164,38.425831 
	C19.073853,33.162834 18.615866,27.399633 22.905216,23.037569 
	C27.216684,18.653008 33.094318,18.992178 38.300056,24.134386 
	C47.662506,33.382584 56.930763,42.726109 66.249550,52.018600 
	C67.401558,53.167355 68.621773,54.247696 70.192688,55.717415 
	C77.399132,48.480309 84.419861,41.425365 91.445885,34.375683 
	C94.738548,31.071934 98.017975,27.754501 101.344933,24.485537 
	C106.865234,19.061459 112.674812,18.546595 117.093544,23.041534 
	C121.476578,27.500151 120.901794,33.231346 115.386368,38.805275 
	C108.121902,46.146786 100.821236,53.453197 93.472252,60.710014 
	C90.519073,63.626152 87.396400,66.370636 84.045441,69.476303 
	C85.617683,71.193764 86.658798,72.418190 87.789909,73.552895 
	C97.080811,82.873238 106.423622,92.142105 115.677338,101.499130 
	C120.917770,106.798065 121.389503,112.516159 117.145721,116.899872 
	C112.755768,121.434578 106.868149,120.984673 101.399498,115.560387 
	C91.228508,105.471909 81.114822,95.325653 70.963783,85.217010 
	C70.752747,85.006859 70.377571,84.961533 69.504532,84.604202 
	C62.064644,92.073586 54.456905,99.711494 46.599239,107.599464 
z"/>
</svg>